<svg width="107" height="30" viewBox="0 0 107 30" fill="none" xmlns="http://www.w3.org/2000/svg">
<path id="Vector" fill-rule="evenodd" clip-rule="evenodd" d="M3.2867 18.1941C4.05515 18.1941 4.70832 18.4236 5.24622 18.8825C5.78412 19.3085 6.09159 19.8658 6.09159 20.5214C6.09159 21.1769 5.82258 21.7341 5.24622 22.193C4.70832 22.6519 4.05515 22.8814 3.2867 22.8814C2.47991 22.8814 1.82674 22.6519 1.28884 22.2258C0.750939 21.7669 0.481934 21.2097 0.481934 20.5214C0.481934 19.833 0.750939 19.2758 1.28884 18.8496C1.82674 18.4236 2.47991 18.1941 3.2867 18.1941ZM100.608 7.41C102.453 7.41 103.874 7.90174 104.836 8.91785C105.834 9.90123 106.333 11.3107 106.333 13.0479V22.8814H101.761V13.9001C101.761 12.0973 100.917 11.1795 99.2644 11.1795C98.3039 11.1795 97.5347 11.5073 96.9589 12.1629C96.4207 12.8184 96.1134 13.7035 96.1134 14.8835V22.8814H91.6186V7.41H95.499L95.8449 9.70451C96.7666 8.16392 98.3802 7.41 100.608 7.41ZM82.3581 7.41C84.5486 7.77059 86.8154 7.70502 89.0822 7.41C89.0435 9.21287 88.1604 10.2946 86.4695 10.6879C86.7005 11.2778 86.8154 11.8351 86.8154 12.4579C86.8154 13.9984 86.1622 15.2441 84.8559 16.2602C83.5882 17.2435 81.8973 17.7352 79.8228 17.7352C78.6701 17.7352 77.7097 17.6041 76.8642 17.3419C76.5956 17.6368 76.442 17.9974 76.442 18.4563C76.442 19.3085 77.0565 19.7019 78.2092 19.7019H82.3581C84.2027 19.7019 85.624 20.0952 86.6231 20.8491C87.6609 21.5702 88.1604 22.6519 88.1604 24.0614C88.1604 25.7003 87.4686 27.0115 86.0473 27.8965C84.6636 28.847 82.7427 29.3059 80.3224 29.3059C77.671 29.3059 75.6728 28.9126 74.3289 28.0931C72.9838 27.3064 72.292 26.1592 72.292 24.6514C72.292 23.537 72.9065 22.6519 74.0592 21.9964C72.6766 21.1769 71.9847 20.0952 71.9847 18.7513C71.9847 17.4729 72.5992 16.4241 73.7906 15.539C72.9838 14.6213 72.5605 13.6051 72.5605 12.4579C72.5605 10.8845 73.2524 9.57337 74.5974 8.62283C75.9425 7.60671 77.671 7.11507 79.7454 7.11507C80.6683 7.08224 81.5138 7.18055 82.3581 7.41ZM81.2441 22.6192H78.5927C78.0556 22.6847 77.5947 22.8486 77.2488 23.1436C76.9029 23.4714 76.7493 23.8647 76.7493 24.3236C76.7493 24.9792 77.0565 25.4709 77.7097 25.8314C78.3628 26.192 79.2459 26.3559 80.3986 26.3559C82.6278 26.3559 83.7419 25.6348 83.7419 24.2253C83.7419 23.1764 82.9351 22.6192 81.2441 22.6192ZM77.0952 12.4579C77.0952 13.1462 77.325 13.7362 77.8246 14.1951C78.3242 14.6213 78.9386 14.8507 79.7454 14.8507C80.5522 14.8507 81.1678 14.6213 81.6287 14.1951C82.1283 13.7362 82.3581 13.179 82.3581 12.4579C82.3581 11.7367 82.1283 11.1468 81.6287 10.6879C81.1678 10.229 80.5147 9.99954 79.7454 9.99954C78.9386 9.99954 78.3242 10.229 77.8246 10.6879C77.3637 11.114 77.0952 11.704 77.0952 12.4579ZM64.9922 7.41H69.5257V22.8814H64.9922V7.41ZM67.2589 0.657715C67.9883 0.657715 68.6415 0.887157 69.1797 1.34606C69.718 1.77218 70.0252 2.32941 70.0252 2.95219C70.0252 3.60776 69.7567 4.16499 69.2184 4.59111C68.6802 5.01722 68.027 5.24668 67.2589 5.24668C66.4908 5.24668 65.8376 5.01722 65.2994 4.59111C64.7612 4.16499 64.4926 3.60776 64.4926 2.95219C64.4926 2.29663 64.7612 1.77218 65.2994 1.34606C65.8376 0.887157 66.4908 0.657715 67.2589 0.657715ZM55.6167 7.41C57.4613 7.41 58.9987 7.83616 60.189 8.6884C61.3804 9.54063 62.0335 10.6879 62.1098 12.0646H57.6149C57.5763 10.9173 56.9231 10.36 55.5792 10.36C54.9636 10.36 54.464 10.4912 54.1181 10.7535C53.7733 11.0156 53.6197 11.3434 53.6197 11.8023C53.6197 12.2612 53.8495 12.6218 54.2728 12.884C54.7337 13.1135 55.5405 13.3102 56.7308 13.5068C58.8064 13.8018 60.2663 14.2934 61.1494 15.0146C62.0722 15.7357 62.4944 16.7191 62.4944 17.9974C62.4944 19.538 61.8799 20.718 60.6123 21.5702C59.3435 22.4225 57.6923 22.8158 55.6554 22.8158C53.5423 22.8158 51.8513 22.3897 50.6224 21.5375C49.4309 20.6853 48.7778 19.5053 48.7391 17.9974H53.2351C53.2737 19.2102 54.1181 19.8002 55.7704 19.8002C57.2303 19.8002 57.9609 19.3413 57.9609 18.3907C57.9609 17.8991 57.7299 17.5385 57.269 17.2435C56.8082 16.9813 56.0014 16.7518 54.7713 16.5551C52.8504 16.2929 51.3905 15.7685 50.4687 15.0801C49.5459 14.359 49.1237 13.4085 49.1237 12.1956C49.1237 10.8189 49.7006 9.67178 50.8522 8.78671C51.9674 7.90174 53.581 7.41 55.6167 7.41ZM38.0198 7.41C40.5175 7.41 42.5157 8.06562 44.0133 9.44232C45.5119 10.7862 46.2425 12.6545 46.2425 15.1457V16.3258H33.9084C33.9858 17.309 34.408 18.1285 35.1772 18.7513C35.9453 19.3413 36.9444 19.6691 38.1734 19.6691C40.018 19.6691 41.2094 19.0791 41.7465 17.9318H46.1651C45.0124 21.2425 42.2847 22.9142 38.0585 22.9142C35.4071 22.9142 33.2939 22.193 31.6417 20.8164C30.0281 19.4069 29.2213 17.5385 29.2213 15.2113C29.2213 12.9496 30.0281 11.0812 31.6804 9.63894C33.2939 8.13119 35.4458 7.41 38.0198 7.41ZM33.9084 13.6707H41.6316C41.5929 12.7201 41.2469 11.999 40.5938 11.409C39.9406 10.8189 39.0189 10.5567 37.9048 10.5567C36.7908 10.5567 35.9066 10.8518 35.1772 11.409C34.4467 11.999 34.0245 12.7529 33.9084 13.6707ZM26.686 1.24772V22.8814H22.7665L22.4208 20.5869C21.1528 22.1274 19.2702 22.8814 16.7728 22.8814C14.4291 22.8814 12.4696 22.1274 10.8942 20.6524C9.31899 19.1774 8.55055 17.3419 8.55055 15.1457C8.55055 12.9496 9.31899 11.1468 10.8942 9.63894C12.4696 8.16392 14.429 7.41 16.8111 7.41C19.1933 7.41 20.9607 8.06562 22.1133 9.34392V1.24772H26.686ZM17.7333 10.9829C16.4654 10.9829 15.3896 11.3762 14.5059 12.1629C13.6607 12.9496 13.238 13.9329 13.238 15.1457C13.238 16.3585 13.6607 17.3746 14.5059 18.1613C15.3512 18.9479 16.427 19.3413 17.7333 19.3413C18.9628 19.3413 20.0386 18.9808 20.8839 18.2596C21.7676 17.5058 22.2286 16.5224 22.2286 15.2441V15.0801C22.1902 13.8674 21.7676 12.884 20.8839 12.1301C19.9617 11.3762 18.9244 11.0156 17.7333 10.9829Z" fill="black"/>
</svg>
